HIERARCHY
ROOT root
{
	OFFSET	0	13.1	24.9
	CHANNELS 6  Xposition Yposition Zposition Xrotation Yrotation Zrotation
	JOINT spine_1
	{
		OFFSET	0	9.99999	0
		CHANNELS 3  Xrotation Yrotation Zrotation
		JOINT spine_2
		{
			OFFSET	0	112	-10
			CHANNELS 3  Xrotation Yrotation Zrotation
			JOINT spine_3
			{
				OFFSET	0	206.5	19.3
				CHANNELS 3  Xrotation Yrotation Zrotation
				JOINT spine_4
				{
					OFFSET	0	110.4	14.6
					CHANNELS 3  Xrotation Yrotation Zrotation
					JOINT neck_1
					{
						OFFSET	0	71.8	-50.3
						CHANNELS 3  Xrotation Yrotation Zrotation
						JOINT neck_2
						{
							OFFSET	0	86.2	-25.8
							CHANNELS 3  Xrotation Yrotation Zrotation
							JOINT head_ee
							{
								OFFSET	0	179.8	-8.7
								CHANNELS 3  Xrotation Yrotation Zrotation
								End Site
								{
									OFFSET	1	0	0
								}
							}
						}
					}
					JOINT left_clavicle
					{
						OFFSET	-43.2	22.4	-70.8
						CHANNELS 3  Xrotation Yrotation Zrotation
						JOINT left_shoulder
						{
							OFFSET	-93.9	-5.79999	48.7
							CHANNELS 3  Xrotation Yrotation Zrotation
							JOINT left_elbow
							{
								OFFSET	-291.4	-30.8	15.2
								CHANNELS 3  Xrotation Yrotation Zrotation
								JOINT left_lowarm_twist
								{
									OFFSET	-110.7	-3.89999	13.6
									CHANNELS 3  Xrotation Yrotation Zrotation
									JOINT left_hand
									{
										OFFSET	-110.7	-3.89999	13.6
										CHANNELS 3  Xrotation Yrotation Zrotation
										JOINT left_ee
										{
											OFFSET	-80.8	-5.10001	12.1
											CHANNELS 3  Xrotation Yrotation Zrotation
											End Site
											{
												OFFSET	1	0	0
											}
										}
									}
								}
							}
						}
					}
					JOINT right_clavicle
					{
						OFFSET	43.2	22.4	-70.8
						CHANNELS 3  Xrotation Yrotation Zrotation
						JOINT right_shoulder
						{
							OFFSET	93.9	-5.79999	48.7
							CHANNELS 3  Xrotation Yrotation Zrotation
							JOINT right_elbow
							{
								OFFSET	291.4	-30.8	15.2
								CHANNELS 3  Xrotation Yrotation Zrotation
								JOINT right_lowarm_twist
								{
									OFFSET	110.7	-3.89999	13.6
									CHANNELS 3  Xrotation Yrotation Zrotation
									JOINT right_hand
									{
										OFFSET	110.7	-3.89999	13.6
										CHANNELS 3  Xrotation Yrotation Zrotation
										JOINT right_ee
										{
											OFFSET	80.8	-5.10001	12.1
											CHANNELS 3  Xrotation Yrotation Zrotation
											End Site
											{
												OFFSET	1	0	0
											}
										}
									}
								}
							}
						}
					}
				}
			}
		}
	}
	JOINT left_hip
	{
		OFFSET	-82.8	-127.5	0.300001
		CHANNELS 3  Xrotation Yrotation Zrotation
		JOINT left_knee
		{
			OFFSET	-28.2	-396.7	2.2
			CHANNELS 3  Xrotation Yrotation Zrotation
			JOINT left_ankle
			{
				OFFSET	-11.7	-411.3	35.4
				CHANNELS 3  Xrotation Yrotation Zrotation
				JOINT left_toes
				{
					OFFSET	0	-60	-88.6
					CHANNELS 3  Xrotation Yrotation Zrotation
					JOINT left_foot_ee
					{
						OFFSET	-22.5	-16.5	-42.2
						CHANNELS 3  Xrotation Yrotation Zrotation
						End Site
						{
							OFFSET	1	0	0
						}
					}
				}
			}
		}
	}
	JOINT right_hip
	{
		OFFSET	82.8	-127.5	0.300001
		CHANNELS 3  Xrotation Yrotation Zrotation
		JOINT right_knee
		{
			OFFSET	28.2	-396.7	2.2
			CHANNELS 3  Xrotation Yrotation Zrotation
			JOINT right_ankle
			{
				OFFSET	11.7	-411.3	35.4
				CHANNELS 3  Xrotation Yrotation Zrotation
				JOINT right_toes
				{
					OFFSET	0	-60	-88.6
					CHANNELS 3  Xrotation Yrotation Zrotation
					JOINT right_foot_ee
					{
						OFFSET	22.5	-16.5	-42.2
						CHANNELS 3  Xrotation Yrotation Zrotation
						End Site
						{
							OFFSET	1	0	0
						}
					}
				}
			}
		}
	}
}
MOTION
Frames: 12
Frame Time: 0.02
1489.96 691.31 -1455.32 -33.5544 83.3635 37.1988 4.79996 -0.339081 -0.88736 4.80036 -0.281931 -0.907136 4.8045 -0.163948 -0.93568 4.80341 -0.309657 -0.89805 -16.7878 8.5776 -0.146788 -17.0878 16.5478 3.02375 -0.0 0.0 -0.0 2.44722 16.937 5.78651 15.1939 -1.77369 70.6724 1.46323 -35.9339 0.474523 -17.1803 -0.911194 1.99068 2.84302 14.797 24.5481 -0.0 0.0 -0.0 9.33152 -15.6322 -16.9924 -24.5641 -12.4745 -55.4473 0.574694 15.8911 -0.0802117 -19.5732 1.08419 -2.24356 7.86794 0.465924 -66.9072 0.0 0.0 0.0 0.722033 17.9811 -5.46355 7.16644 -0.360704 -1.03942 19.2823 -31.4329 -3.37696 -6.57548 0.0 0.0 -0.0 0.0 -0.0 31.5099 0.941394 -2.1561 -63.4664 2.58569 -8.89592 28.3446 -3.55402 3.71282 -0.143715 0.0 0.0 0.0 0.0 0.0 
1472.09 691.221 -1453.32 -31.8373 83.4327 35.3942 4.59809 -0.355501 -1.03095 4.59864 -0.289182 -1.05148 4.60353 -0.148948 -1.0803 4.60204 -0.317683 -1.04322 -17.0824 8.70112 0.171496 -17.3941 16.6158 3.41299 -0.0 0.0 -0.0 2.31224 17.5932 5.61058 15.9406 -3.05368 71.0929 1.56231 -37.7345 0.533931 -14.6247 -0.738314 1.71297 2.99406 11.1018 24.4664 -0.0 0.0 -0.0 9.1516 -15.8447 -16.6594 -25.0074 -13.1377 -54.6354 0.551515 15.2807 -0.0739838 -19.8585 1.10552 -2.27323 7.82073 -0.340486 -66.8704 0.0 0.0 0.0 -0.574984 19.412 -5.11701 6.33468 -0.312188 -0.92115 19.0535 -30.3107 -3.29069 -6.82087 0.0 0.0 -0.0 0.0 -0.0 31.9251 4.6134 -3.96819 -62.0191 2.42192 -8.74406 23.1831 -3.56579 3.12243 -0.0885324 0.0 0.0 0.0 0.0 0.0 
1456.65 690.624 -1451.55 -27.2412 82.784 30.6623 4.5006 -0.345203 -1.08708 4.50121 -0.275334 -1.10684 4.50608 -0.126038 -1.13358 4.50442 -0.303473 -1.09946 -17.4447 8.66857 -0.465875 -17.7807 16.9142 2.86477 -0.0 0.0 -0.0 3.1719 16.6127 6.90738 17.088 -2.96032 70.7986 1.59023 -38.2265 0.551109 -14.607 -0.737157 1.71101 2.64697 9.84045 21.6151 -0.0 0.0 -0.0 9.08905 -17.1606 -16.3897 -25.858 -12.5635 -53.2745 0.613639 16.9083 -0.0912078 -19.3592 1.06829 -2.22124 7.64152 -1.71781 -65.0928 0.0 0.0 0.0 -2.05238 20.7715 -4.69177 6.1117 -0.299475 -0.889328 19.7827 -30.3349 -3.40342 -6.98551 0.0 0.0 -0.0 0.0 -0.0 34.4649 10.4141 -6.7658 -53.5807 1.54811 -7.78138 19.4069 -2.72746 2.66489 -2.19867 0.0 0.0 0.0 0.0 0.0 
1442.43 689.891 -1451.56 -21.2473 81.8073 24.6805 4.4291 -0.223148 -1.29259 4.43002 -0.140452 -1.30417 4.43257 0.0355513 -1.31122 4.43021 -0.17196 -1.30039 -18.3515 8.48463 -0.451616 -18.7028 16.567 2.94434 -0.0 0.0 -0.0 3.59297 16.3706 7.56504 17.8349 -3.47731 70.283 1.62657 -38.8573 0.573756 -14.428 -0.725529 1.69129 2.22159 7.25114 17.7725 -0.0 0.0 -0.0 9.05844 -17.7623 -16.2616 -26.0337 -13.3691 -52.4694 0.610581 16.8288 -0.0903204 -19.1399 1.05208 -2.19831 7.66769 -2.92613 -66.5473 0.0 0.0 0.0 -3.01334 21.5949 -4.47786 6.13195 -0.300624 -0.89222 21.6958 -30.1723 -3.68245 -8.30199 0.0 0.0 -0.0 0.0 -0.0 33.8148 14.3569 -7.62575 -44.4442 0.773438 -6.60892 14.0246 -1.27911 1.97615 -4.99136 0.0 0.0 0.0 0.0 0.0 
1428.3 687.762 -1451.74 -20.0255 80.939 23.6558 4.32496 -0.162813 -1.42254 4.32609 -0.0719726 -1.43002 4.32713 0.122925 -1.42654 4.3243 -0.10389 -1.42805 -18.4483 8.28259 -0.610576 -18.7892 16.2642 2.72806 -0.0 0.0 -0.0 3.86358 16.3102 7.99262 18.041 -4.44685 70.4153 1.6626 -39.4717 0.596506 -13.9416 -0.694225 1.63747 2.05864 4.24755 15.5437 -0.0 0.0 -0.0 8.99927 -18.4421 -16.0759 -26.4485 -13.2026 -51.995 0.629344 17.3154 -0.0958287 -19.0863 1.04813 -2.19269 7.61014 -3.74879 -66.2373 0.0 0.0 0.0 -3.76781 22.7327 -4.43251 6.08429 -0.297921 -0.885414 23.3922 -30.0667 -3.92346 -8.85577 0.0 0.0 -0.0 0.0 -0.0 34.2145 17.8628 -7.85537 -34.899 0.174532 -5.27115 9.53857 -2.49653 1.36406 -6.41958 0.0 0.0 0.0 0.0 0.0 
1411.76 683.633 -1451.29 -18.8287 80.3386 22.7511 4.25206 -0.242492 -1.56365 4.25341 -0.142514 -1.57591 4.25645 0.0747832 -1.58057 4.253 -0.175745 -1.57255 -19.3113 8.36631 -0.318506 -19.6805 16.2804 3.16407 -0.0 0.0 -0.0 4.10462 16.323 8.3753 18.4409 -4.87699 70.6309 1.72868 -40.5712 0.639008 -13.9684 -0.695936 1.64044 1.77939 4.26617 13.6448 -0.0 0.0 -0.0 8.91428 -18.9863 -15.8668 -26.8129 -13.2662 -51.2735 0.5945 16.4097 -0.0857209 -19.6978 1.09348 -2.25653 7.59961 -4.55318 -66.699 0.0 0.0 0.0 -4.39576 23.3581 -4.66139 5.15597 -0.246395 -0.752396 24.9284 -30.0816 -4.14085 -8.99472 0.0 0.0 -0.0 0.0 -0.0 35.0936 21.2437 -7.76558 -29.3672 -0.0677843 -4.45722 5.1753 -2.37358 0.75088 -8.19379 0.0 0.0 0.0 0.0 0.0 
1398.97 678.371 -1452.01 -20.5351 79.5524 24.4987 4.30436 -0.28835 -1.69624 4.30595 -0.179846 -1.71114 4.31026 0.0547092 -1.7197 4.3062 -0.217531 -1.70676 -20.2797 7.54778 0.378018 -20.5872 14.3618 3.58698 -0.0 0.0 -0.0 4.09641 17.3002 8.36847 19.0724 -6.69905 71.383 1.76716 -41.1952 0.664193 -14.3502 -0.720492 1.6827 1.64895 3.57704 12.4948 -0.0 0.0 -0.0 9.04007 -19.1567 -16.0458 -25.6939 -12.3836 -49.8427 0.420048 11.7546 -0.0432396 -20.0905 1.12297 -2.29728 7.5932 -5.30086 -67.1761 0.0 0.0 0.0 -4.72521 23.764 -4.78928 4.62398 -0.217844 -0.675805 29.2581 -30.8776 -4.76669 -8.15318 0.0 0.0 -0.0 0.0 -0.0 35.1784 24.1868 -7.13752 -20.4912 -0.289476 -3.11448 0.142894 -8.39995 0.0209043 -9.4955 0.0 0.0 0.0 0.0 0.0 
1388.48 678.156 -1452.53 -19.3968 78.237 23.2279 4.34825 -0.274784 -1.71299 4.34987 -0.165242 -1.727 4.35376 0.0700266 -1.73347 4.34962 -0.204581 -1.72279 -20.0906 7.39946 0.958692 -20.3656 13.78 4.03183 -0.0 0.0 -0.0 3.65917 17.3799 7.68758 18.846 -7.17437 72.4306 1.7973 -41.6757 0.684136 -14.2354 -0.713076 1.67 1.57284 2.43422 11.5336 -0.0 0.0 -0.0 9.20285 -19.1247 -16.3118 -24.2358 -11.6016 -49.2848 0.312698 8.80542 -0.0240758 -20.9065 1.18514 -2.3813 7.57053 -5.98821 -67.3009 0.0 0.0 0.0 -4.95948 24.005 -4.72266 3.31195 -0.150487 -0.48583 29.4662 -30.6746 -4.78073 -8.58576 0.0 0.0 -0.0 0.0 -0.0 34.6999 26.2197 -6.79713 -13.6473 -0.317219 -2.06539 -1.12573 -13.0719 -0.165708 -10.3533 0.0 0.0 0.0 0.0 0.0 
1374.85 679.493 -1453.28 -18.9827 78.8658 22.7657 4.11347 -0.189678 -1.78405 4.11523 -0.0757891 -1.7925 4.11652 0.174964 -1.78555 4.11209 -0.10918 -1.79077 -20.3091 7.45222 1.2231 -20.5859 13.7552 4.32757 -0.0 0.0 -0.0 4.19613 17.9545 8.52541 18.7165 -7.6905 72.5524 1.80372 -41.7772 0.688414 -14.9691 -0.760885 1.75083 1.87638 -0.110667 12.5941 -0.0 0.0 -0.0 9.60752 -19.2256 -16.95 -24.5177 -11.3691 -48.342 0.186562 5.28026 -0.00860265 -23.2384 1.36933 -2.61647 7.44999 -7.31294 -66.1281 0.0 0.0 0.0 -6.08909 23.7823 -4.50307 2.55553 -0.113641 -0.375633 32.4524 -31.8873 -5.2318 -8.66632 0.0 0.0 -0.0 0.0 -0.0 34.5718 27.7695 -6.39767 -3.88865 -0.140461 -0.580145 -8.1478 -21.9698 -1.24494 -11.3711 0.0 0.0 0.0 0.0 0.0 
1354.29 676.679 -1454.2 -20.4713 77.9723 24.1035 3.94293 -0.0964864 -1.81593 3.94477 0.0192418 -1.81838 3.94311 0.278167 -1.79709 3.9386 -0.00909276 -1.81846 -21.5698 6.97571 1.04801 -21.8406 12.9553 4.11194 -0.0 0.0 -0.0 4.27812 19.8868 8.64456 18.6421 -8.70867 73.7618 1.86114 -42.6704 0.727 -14.9809 -0.761662 1.75213 1.87433 -0.202685 12.5431 -0.0 0.0 -0.0 9.67004 -19.3108 -17.038 -24.0915 -11.3729 -48.0082 0.192325 5.44239 -0.00914115 -24.3868 1.46353 -2.72951 7.33656 -8.95018 -65.2432 0.0 0.0 0.0 -6.87912 23.5665 -4.5992 1.23882 -0.0529919 -0.182711 32.3244 -31.8584 -5.2143 -8.38237 0.0 0.0 -0.0 0.0 -0.0 33.7278 28.9073 -5.66118 1.68058 0.0728443 0.247588 -8.32173 -23.2564 -1.27896 -8.61463 0.0 0.0 0.0 0.0 0.0 
1337.58 672.575 -1459.77 -18.6612 78.1946 22.445 3.70183 -0.0639874 -1.96813 3.70399 0.0613546 -1.96821 3.70078 0.349443 -1.93792 3.69554 0.0390601 -1.96878 -22.0659 6.64701 1.4286 -22.3086 12.1528 4.36911 -0.0 0.0 -0.0 4.06976 19.3224 8.33339 18.2748 -9.37403 74.3286 1.82277 -42.0763 0.701138 -15.0486 -0.766126 1.75955 1.81201 -0.318183 12.07 -0.0 0.0 -0.0 9.88897 -19.4339 -17.3728 -24.0151 -11.3098 -47.7921 0.160952 4.55872 -0.00640639 -24.8274 1.50028 -2.77239 7.38325 -9.78247 -66.537 0.0 0.0 0.0 -8.56649 23.5434 -4.38968 0.310185 -0.0128971 -0.0458531 36.2069 -32.338 -5.69791 -7.18864 0.0 0.0 -0.0 0.0 -0.0 33.3647 29.7419 -4.91035 6.52202 0.322965 0.947848 -13.1214 -26.3074 -2.05972 -8.78987 0.0 0.0 0.0 0.0 0.0 
1318.81 667.044 -1466.71 -17.1003 79.1116 20.2659 3.53349 -0.200884 -1.96726 3.53564 -0.07532 -1.97605 3.53726 0.220931 -1.96511 3.53188 -0.0921314 -1.97534 -21.1067 7.09873 1.51313 -21.3641 12.9555 4.53886 -0.0 0.0 -0.0 4.04068 19.445 8.28969 17.0736 -9.6354 74.7832 1.80507 -41.7984 0.689307 -15.4366 -0.791889 1.80202 2.34263 -0.60343 15.615 -0.0 0.0 -0.0 10.151 -19.5266 -17.7828 -24.4122 -11.3085 -47.8593 0.183056 5.18158 -0.0082831 -27.0604 1.69154 -2.98528 7.21514 -11.5123 -64.6239 0.0 0.0 0.0 -9.56515 23.8323 -4.49672 -2.22477 0.0851889 0.330779 35.1709 -29.7296 -5.39884 -8.3255 0.0 0.0 -0.0 0.0 -0.0 32.5142 30.2637 -4.34973 7.15341 0.359931 1.03757 -14.2075 -29.0209 -2.26911 -7.20521 0.0 0.0 0.0 0.0 0.0 
